<?xml version="1.0" encoding="UTF-8"?>
<!-- Generated by Pixelmator Pro 3.3.2 -->
<svg width="18" height="18" viewBox="0 0 18 18" xmlns="http://www.w3.org/2000/svg" xmlns:xlink="http://www.w3.org/1999/xlink">
    <path id="icon-reminder-4" fill="#ffffff" stroke="none" d="M 4.075826 8.151662 C 5.752909 8.151662 7.151659 6.760043 7.151659 5.082968 C 7.151659 3.398753 5.752909 2 4.075826 2 C 2.391619 2 1 3.398753 1 5.082968 C 1 6.760043 2.398751 8.151662 4.075826 8.151662 Z M 3.71187 6.731499 C 3.562002 6.731499 3.46209 6.652991 3.355046 6.531675 L 2.555759 5.568248 C 2.484391 5.489748 2.462979 5.404107 2.462979 5.289924 C 2.462979 5.082968 2.619987 4.918828 2.812671 4.918828 C 2.948266 4.918828 3.048171 4.975917 3.14095 5.097239 L 3.697598 5.803755 L 4.967893 3.762717 C 5.053533 3.634254 5.160577 3.562893 5.289033 3.562893 C 5.488857 3.562893 5.660129 3.719893 5.660129 3.898305 C 5.660129 3.998218 5.631585 4.083857 5.567357 4.190901 L 4.075826 6.531675 C 3.997326 6.660131 3.86887 6.731499 3.71187 6.731499 Z M 4.075826 16.415749 C 5.752909 16.415749 7.151659 15.01697 7.151659 13.339909 C 7.151659 11.648525 5.752909 10.256907 4.075826 10.256907 C 2.391619 10.256907 1 11.655687 1 13.339909 C 1 15.01697 2.398751 16.415749 4.075826 16.415749 Z M 4.075826 15.373807 C 2.969671 15.373807 2.041927 14.438925 2.041927 13.339909 C 2.041927 12.233732 2.97681 11.298848 4.075826 11.298848 C 5.17485 11.298848 6.109732 12.233732 6.109732 13.339909 C 6.109732 14.438925 5.17485 15.373807 4.075826 15.373807 Z M 9.285478 5.625336 L 16.450527 5.625336 C 16.750219 5.625336 17 5.389836 17 5.082968 C 17 4.783233 16.750219 4.547725 16.450527 4.547725 L 9.285478 4.547725 C 8.985713 4.547725 8.743095 4.783233 8.743095 5.082968 C 8.743095 5.389836 8.985713 5.625336 9.285478 5.625336 Z M 9.285478 13.875131 L 16.450527 13.875131 C 16.750219 13.875131 17 13.639601 17 13.339909 C 17 13.033055 16.750219 12.797525 16.450527 12.797525 L 9.285478 12.797525 C 8.985713 12.797525 8.743095 13.033055 8.743095 13.339909 C 8.743095 13.639601 8.985713 13.875131 9.285478 13.875131 Z"/>
</svg>
