<svg width="18" height="18" fill="none" version="1.1" viewBox="0 0 18 18" xmlns="http://www.w3.org/2000/svg">
 <path d="m6.7099 13.237h-3.3646c-0.10058-2.75e-4 -0.19931-0.02702-0.28625-0.07768-0.08694-0.05056-0.15901-0.12312-0.20898-0.21041-0.049961-0.0873-0.07604-0.18623-0.075618-0.28681 4.214e-4 -0.10058 0.027335-0.19924 0.078028-0.28617 0.47267-0.81343 1.0095-2.3011 1.0095-4.8641l-9.165e-4 -0.11451c-9.801e-4 -0.67917 0.1325-1.3518 0.39277-1.9791 0.26026-0.62733 0.64215-1.1969 1.1236-1.6759 0.48148-0.47901 1.053-0.85796 1.6817-1.115 0.62865-0.25703 1.302-0.38706 1.9811-0.38259 2.8333 0.021069 5.0995 2.3762 5.0995 5.2177v0.049465c0 2.563 0.53588 4.0507 1.0076 4.8641 0.05066 0.08684 0.07758 0.1854 0.07805 0.28598 4.58e-4 0.10049-0.02555 0.19933-0.07539 0.28663-0.04983 0.08721-0.12183 0.15985-0.20867 0.2105-0.08675 0.05066-0.1854 0.07749-0.28589 0.07795h-3.3655m-4.5802 0v0.22892c0 0.60733 0.24127 1.1898 0.67075 1.6194 0.42947 0.42944 1.012 0.67072 1.6193 0.67072 0.60736 0 1.1898-0.24128 1.6194-0.67072 0.42944-0.42953 0.67072-1.012 0.67072-1.6194v-0.22892m-4.5802 0h4.5802" stroke="#ffffff" stroke-linecap="round" stroke-linejoin="round" stroke-width="1.4886"/>
</svg>
