<svg width="18" height="18" fill="none" version="1.1" viewBox="0 0 18 18" xmlns="http://www.w3.org/2000/svg">
 <path d="m15.755 9.2329c0 3.4938-3.028 6.5217-6.4956 6.5217m6.4956-6.5217c0 0.98234-0.77022 1.8633-1.7525 1.8633h-1.1857c-0.98236 0-1.7202 0.71162-1.7202 1.694v1.1857c0 0.98236-0.85491 1.7787-1.8372 1.7787m6.4956-6.5217v-5.1242c0-1.0291-0.83422-1.8634-1.8634-1.8634h-9.7826c-1.0291 0-1.8634 0.83425-1.8634 1.8634v9.7826c0 1.0291 0.83425 1.8634 1.8634 1.8634h5.1504" stroke="#ffffff" stroke-width="1.4907"/>
 <circle cx="6.4379" cy="11.096" r="1.1646" fill="#ffffff" style="stroke-width:.93168"/>
 <circle cx="6.4379" cy="6.9037" r="1.1646" fill="#ffffff" style="stroke-width:.93168"/>
</svg>
