<svg width="18" height="18" fill="none" version="1.1" viewBox="0 0 18 18" xmlns="http://www.w3.org/2000/svg">
 <path d="m1.5 3.8438c0-1.2944 1.0493-2.3438 2.3438-2.3438h10.312c1.2944 0 2.3438 1.0493 2.3438 2.3438v10.312c0 1.2944-1.0493 2.3438-2.3438 2.3438h-10.312c-1.2944 0-2.3438-1.0493-2.3438-2.3438zm4.6875 0.9375c0 0.77665-0.6296 1.4062-1.4062 1.4062s-1.4062-0.6296-1.4062-1.4062 0.6296-1.4062 1.4062-1.4062 1.4062 0.6296 1.4062 1.4062zm-1.4062 9.8438c0.77665 0 1.4062-0.62962 1.4062-1.4062s-0.6296-1.4062-1.4062-1.4062-1.4062 0.62962-1.4062 1.4062 0.6296 1.4062 1.4062 1.4062zm1.4062-5.625c0 0.77665-0.6296 1.4062-1.4062 1.4062s-1.4062-0.6296-1.4062-1.4062 0.6296-1.4062 1.4062-1.4062 1.4062 0.6296 1.4062 1.4062zm2.1094-4.9219c-0.38832 0-0.70312 0.3148-0.70312 0.70312s0.3148 0.70312 0.70312 0.70312h5.625c0.38831 0 0.70312-0.3148 0.70312-0.70312s-0.31481-0.70312-0.70312-0.70312zm-0.70312 4.9219c0-0.38832 0.3148-0.70312 0.70312-0.70312h5.625c0.38831 0 0.70312 0.3148 0.70312 0.70312s-0.31481 0.70312-0.70312 0.70312h-5.625c-0.38832 0-0.70312-0.3148-0.70312-0.70312zm0.70312 3.5156c-0.38832 0-0.70312 0.31481-0.70312 0.70312 0 0.38831 0.3148 0.70312 0.70312 0.70312h5.625c0.38831 0 0.70312-0.31481 0.70312-0.70312 0-0.38831-0.31481-0.70312-0.70312-0.70312z" clip-rule="evenodd" fill="#ffffff" fill-rule="evenodd" style="stroke-width:.9375"/>
</svg>
