<?xml version="1.0" encoding="UTF-8"?>
<!-- Generated by Pixelmator Pro 3.3.2 -->
<svg width="18" height="18" viewBox="0 0 18 18" xmlns="http://www.w3.org/2000/svg" xmlns:xlink="http://www.w3.org/1999/xlink">
    <path id="icon-tasks" fill="#ffffff" stroke="none" d="M 8.999992 17 C 13.376491 17 17 13.36862 17 8.999993 C 17 4.623527 13.36862 1 8.992146 1 C 4.623526 1 1 4.623527 1 8.999993 C 1 13.36862 4.631364 17 8.999992 17 Z M 8.999992 15.666634 C 5.298032 15.666634 2.341173 12.701937 2.341173 8.999993 C 2.341173 5.298033 5.290194 2.333335 8.992146 2.333335 C 12.694065 2.333335 15.666633 5.298033 15.666633 8.999993 C 15.666633 12.701937 12.701937 15.666634 8.999992 15.666634 Z M 8.984307 14.474459 C 12.035253 14.474459 14.466667 12.035254 14.458797 8.992146 C 14.450926 5.956861 12.019592 3.517649 8.97646 3.517649 C 5.933329 3.517649 3.517647 5.949015 3.517647 8.992146 C 3.517647 12.043123 5.941167 14.474459 8.984307 14.474459 Z"/>
</svg>
